# xmcd
#
# Track frame offsets:
# 150
# 20902
# 37168
# 53039
# 65667
# 81342
# 96541
# 117353
# 131050
# 143372
# 155899
# 167940
# 183814
#
# Disc length: 2605 seconds
#
#
# Revision: 0
# Processed by: cddbd v1.5.2PL0 Copyright (c) Steve Scherf et al.
# Submitted via: FreeRIP 2.945 
#
DISCID=c10a2b0d
DTITLE=Burger Albert - Inational
DYEAR=2007
DGENRE=Rock
TTITLE0=Inational
TTITLE1=Powder Blues
TTITLE2=Are You Ready
TTITLE3=Human Meat
TTITLE4=Stone Age
TTITLE5=Nine One One
TTITLE6=Trembling Fingers
TTITLE7=Wind at my Back
TTITLE8=Let it Rock
TTITLE9=Infrasound
TTITLE10=Going Home
TTITLE11=soft Shoe Shuffle
TTITLE12=My Yamma
EXTD=Albert Burger plays Burger Muziek
EXTT0=
EXTT1=
EXTT2=
EXTT3=
EXTT4=
EXTT5=
EXTT6=
EXTT7=
EXTT8=
EXTT9=
EXTT10=
EXTT11=
EXTT12=
PLAYORDER=
